<svg width="24" height="24" viewBox="0 0 24 24" fill="none" xmlns="http://www.w3.org/2000/svg">
<path fill-rule="evenodd" clip-rule="evenodd" d="M20.3509 22.4265V22.4237L20.3727 22.3646L24 1.54902V1.48294C24 0.963929 23.8307 0.510999 23.4654 0.239791C23.1449 0.001624 22.776 -0.0148961 22.5171 0.00713089C22.2762 0.0319334 22.0385 0.0873455 21.8084 0.172333C21.7102 0.208341 21.6134 0.248755 21.5181 0.293482L21.5024 0.300365L1.27935 9.33007L1.27331 9.33282C1.21182 9.35672 1.15164 9.38476 1.09309 9.4168C0.949263 9.49035 0.811272 9.57786 0.680645 9.67837C0.4206 9.88212 -0.0740894 10.3612 0.0093668 11.1211C0.0783089 11.7517 0.459305 12.1509 0.71693 12.3588C0.868995 12.4801 1.03249 12.5817 1.20436 12.6616L1.24307 12.6809L1.25516 12.6851L1.26363 12.6892L4.80266 14.0452C4.79056 14.2972 4.81233 14.5546 4.8716 14.8093L6.64353 22.4623C6.74033 22.8795 6.9495 23.2516 7.24166 23.5265C7.53382 23.8015 7.8943 23.9653 8.27247 23.9951C8.65064 24.0248 9.0275 23.919 9.35013 23.6925C9.67276 23.466 9.92495 23.1301 10.0713 22.7321L12.8386 19.3647L17.5908 23.5113L17.6585 23.5444C18.0903 23.7591 18.4931 23.8266 18.862 23.7701C19.2309 23.7123 19.5236 23.5361 19.7437 23.3365C19.9983 23.1015 20.2013 22.8022 20.3364 22.4623L20.3461 22.4389L20.3497 22.4306L20.3509 22.4265ZM6.62539 14.2834C6.60576 14.1985 6.61043 14.1086 6.6387 14.027C6.66698 13.9453 6.71739 13.8759 6.78262 13.8291L18.7822 5.15595C18.7822 5.15595 19.4885 4.66722 19.4631 5.15595C19.4631 5.15595 19.5889 5.2413 19.2103 5.64192C18.8523 6.02326 10.6579 15.0282 9.82817 15.9395C9.78203 15.9905 9.74971 16.0555 9.73504 16.1268L8.39732 21.9364L6.62539 14.282V14.2834Z" fill="#F4F4FD"/>
</svg>
